Coordinates
version=1
nRows=27
nColumns=12
inDegrees=yes

Units are S.I. units (second, meters, Newtons, ...)
Angles are in degrees

endheader
time	SC_y	SC_z	SC_x	AC_y	AC_z	AC_x	GH_y	GH_z	GH_yy	EL_x	PS_y
       0.0              -11.86          34.89          6.531          47.69         -3.326         -10.41         -83.15           72.2          26.65           42.7          147.7
  0.008409              -11.86          34.89          6.537          47.69         -3.328         -10.41         -83.15           72.2          26.65          42.69          147.7
   0.01682              -11.86           34.9          6.543          47.69          -3.33         -10.41         -83.14          72.19          26.66          42.69          147.7
   0.02523              -11.86           34.9          6.549          47.69         -3.332         -10.41         -83.14          72.19          26.66          42.68          147.7
   0.03364              -11.87           34.9          6.555           47.7         -3.334         -10.41         -83.14          72.18          26.66          42.68          147.6
   0.04205              -11.87           34.9          6.562           47.7         -3.336         -10.41         -83.13          72.17          26.67          42.67          147.6
   0.05046              -11.87           34.9           6.57           47.7         -3.339         -10.41         -83.13          72.16          26.67          42.67          147.6
   0.05886              -11.88           34.9          6.578           47.7         -3.341         -10.41         -83.12          72.16          26.67          42.66          147.6
   0.06727              -11.88           34.9          6.587           47.7         -3.344         -10.41         -83.12          72.15          26.68          42.65          147.6
   0.07568              -11.88           34.9          6.596          47.71         -3.347         -10.41         -83.11          72.14          26.68          42.65          147.6
   0.08409              -11.89           34.9          6.606          47.71          -3.35         -10.41         -83.11          72.13          26.69          42.64          147.6
    0.0925              -11.89           34.9          6.616          47.71         -3.354         -10.41          -83.1          72.12          26.69          42.63          147.5
    0.1009               -11.9          34.91          6.628          47.72         -3.357         -10.41         -83.09          72.11           26.7          42.62          147.5
    0.1093               -11.9          34.91           6.64          47.72         -3.361          -10.4         -83.09           72.1          26.71          42.61          147.5
    0.1177              -11.91          34.91          6.654          47.72         -3.365          -10.4         -83.08          72.08          26.71           42.6          147.5
    0.1261              -11.92          34.91          6.668          47.73          -3.37          -10.4         -83.07          72.07          26.72          42.58          147.5
    0.1345              -11.92          34.91          6.684          47.73         -3.375          -10.4         -83.06          72.05          26.73          42.57          147.4
     0.143              -11.93          34.92          6.701          47.74         -3.381          -10.4         -83.05          72.03          26.74          42.56          147.4
    0.1514              -11.94          34.92           6.72          47.74         -3.387          -10.4         -83.04          72.02          26.75          42.54          147.4
    0.1598              -11.95          34.92          6.741          47.75         -3.393          -10.4         -83.03           72.0          26.76          42.52          147.4
    0.1682              -11.96          34.92          6.763          47.75         -3.401          -10.4         -83.01          71.97          26.77          42.51          147.3
    0.1766              -11.97          34.93          6.788          47.76         -3.409          -10.4          -83.0          71.95          26.78          42.48          147.3
     0.185              -11.98          34.93          6.816          47.77         -3.417          -10.4         -82.98          71.92           26.8          42.46          147.2
    0.1934              -11.99          34.94          6.846          47.78         -3.427         -10.39         -82.96          71.89          26.81          42.44          147.2
    0.2018              -12.01          34.94           6.88          47.79         -3.438         -10.39         -82.94          71.86          26.83          42.41          147.2
    0.2102              -12.03          34.94          6.918           47.8          -3.45         -10.39         -82.92          71.82          26.85          42.38          147.1
    0.2186              -12.05          34.95           6.96          47.81         -3.464         -10.39         -82.89          71.78          26.87          42.34          147.0
